PathFileType	4	(X/Y/Z)	C:/Users/beibeiliu/ov580/test_trc/capture2\sequence.12_training_dense_right.trc
DataRate	CameraRate	NumFrames	NumMarkers	Units	OrigDataRate	OrigDataStartFrame	OrigNumFrames
120	120	21	19	mm	120	139	369
Frame#	Time	ThumbCMC			ThumbMCP			ThumbIP			ThumbTip			IndexMCP			IndexPIP			IndexTip			MiddleMCP			MiddlePIP			MiddleTip			RingMCP			RingPIP			RingTip			PinkyMCP			PinkyPIP			PinkyTip			BackHand1			BackHand2			BackHand3	
		X0	Y0	Z0	X1	Y1	Z1	X2	Y2	Z2	X3	Y3	Z3	X4	Y4	Z4	X5	Y5	Z5	X6	Y6	Z6	X7	Y7	Z7	X8	Y8	Z8	X9	Y9	Z9	X10	Y10	Z10	X11	Y11	Z11	X12	Y12	Z12	X13	Y13	Z13	X14	Y14	Z14	X15	Y15	Z15	X16	Y16	Z16	X17	Y17	Z17	X18	Y18	Z18	
138	1.15	111.171	61.0523	49.7563	98.3491	64.8726	17.6153	87.1935	77.8786	-5.66489	82.7971	89.3876	-26.1482	118.912	121.597	16.6734	101.695	117.946	-7.4646	97.1189	104.525	-30.198	150.217	132.679	18.9786	144.697	153.015	0.314863	146.213	168.415	-16.3151	171.093	117.926	13.0782	176.079	140.284	-5.47895	171.996	160.807	-21.3609	184.192	101.276	3.27944	190.745	114.322	-11.4328	204.968	130.019	-23.4924	173.913	82.4143	44.0916	176.653	56.4616	59.3748	147.876	76.0873	65.519	
139	1.15833	114.079	58.2782	49.1306	102.957	65.5666	16.2877	89.1806	76.8758	-5.93814	89.1824	88.5406	-24.1881	114.102	120.238	19.6255	100.908	116.393	-7.56003	96.9091	104.826	-28.9918	148.155	131.489	22.0603	144.917	152.239	2.33197	145.98	169.417	-14.9435	167.865	118.819	16.1444	174.384	137.97	-0.429259	174.481	161.257	-19.9016	186.194	100.283	5.3779	190.758	113.354	-6.11023	205.122	131.606	-18.0834	171.27	81.6208	45.9796	174.871	55.7932	62.9734	147.218	75.7914	66.5527	
140	1.16667	113.435	59.3809	47.806	98.6083	61.95	16.2141	91.1248	72.8637	-4.85679	89.5002	88.5449	-25.0165	115.954	117.747	20.7046	105.346	115.273	-10.6946	96.9208	102.862	-32.6577	147.526	128.024	23.6057	144.027	150.92	4.20743	147.733	169.359	-13.7546	172.608	119.027	16.1898	173.221	139.662	1.87794	177.407	160.731	-18.4124	184.34	97.1609	9.71341	191.46	112.659	-2.99868	205.994	134.559	-15.3609	173.929	76.4653	45.7638	173.064	55.9007	61.8077	142.6	75.8365	67.8391	
141	1.175	109.642	54.9141	47.9381	101.891	62.6549	12.9126	89.3912	74.7249	-8.26094	91.4268	86.3351	-26.8967	113.08	117.758	15.9288	107.483	115.373	-11.2426	102.908	100.907	-35.2571	149.986	126.408	20.1836	143.501	148.365	3.39155	146.192	167.389	-14.3025	168.028	120.667	15.7588	175.128	139.164	-1.33228	175.124	157.346	-15.2331	187.172	95.2909	8.76747	194.76	113.982	-6.36457	208.041	128.075	-15.827	169.685	80.2482	47.0877	175.008	53.3684	63.546	145.948	74.5169	64.9137	
142	1.18333	109.753	56.6474	42.8974	98.7325	58.157	11.8419	90.6787	71.9884	-11.3219	91.5049	81.9607	-29.1642	116.269	114.887	12.3367	105.388	111.168	-13.5503	102.053	97.0077	-38.2451	148.661	126.653	16.5124	147.552	143.369	-0.819597	146.149	167.42	-21.7537	170.578	119.096	11.7679	172.422	134.367	-0.895605	176.701	157.642	-21.6778	187.314	95.827	6.75058	193.454	110.407	-5.82462	211.637	125.988	-16.4101	169.583	74.6736	46.2218	175.789	55.5945	60.5197	142.195	74.888	64.9185	
143	1.19167	112.764	54.4957	39.7917	100.752	53.9846	9.62262	91.0959	67.4662	-16.0059	91.0707	80.8553	-35.7504	116.582	110.292	10.0684	105.425	105.322	-21.2094	107.536	89.2806	-44.2515	149.288	121.532	13.3496	148.283	140.137	-5.87742	145.791	162.652	-26.3498	170.368	110.904	10.5274	177.883	133.425	-9.96204	178.612	151.057	-24.6671	187.863	89.9724	5.26571	196.712	104.338	-9.77859	208.41	125.147	-18.7006	169.943	78.1029	43.3453	171.451	48.5389	61.0988	142.45	71.1939	58.8247	
144	1.2	112.256	46.2559	39.7502	100.097	49.5743	5.42678	94.2317	61.9569	-17.739	90.713	72.5887	-38.0103	116.581	106.993	1.83846	110.678	100.439	-27.7737	105.759	83.2831	-46.6808	146.6	116.12	9.38527	147.164	135.926	-12.777	146.625	154.699	-30.377	172.024	109.086	4.56721	178.149	123.53	-11.4999	182.689	145.857	-30.8103	190.796	86.3443	1.66924	198.996	103.927	-14.0261	209.102	116.751	-21.6152	170.098	72.7819	37.819	170.842	45.646	60.0319	142.989	70.1705	57.27	
145	1.20833	112.32	43.8203	35.44	102.565	47.737	1.37653	93.0291	56.22	-21.648	92.0308	68.4294	-42.0579	120.736	101.821	-3.98425	111.898	96.475	-29.723	108.371	75.7341	-51.4533	149.554	111.971	5.18148	148.143	130.069	-15.5824	149.784	148.195	-35.8874	171.896	104.206	2.25893	178.18	122.282	-15.7652	183.817	139.497	-34.8555	188.963	82.2312	-0.367697	198.574	95.8668	-15.0555	215.716	109.709	-25.4086	173.724	65.2666	36.963	171.47	43.3903	56.1901	144.978	64.7869	53.9829	
146	1.21667	112.232	43.7861	31.278	104.39	42.3712	1.34912	95.4495	54.4395	-24.7746	94.8135	62.1692	-43.9265	118.047	98.5016	-7.38169	111.358	91.7238	-30.7224	113.355	68.408	-55.5094	150.265	107.925	0.785282	150.138	126.184	-20.7801	151.251	145.93	-42.9191	173.692	97.5001	-0.666693	179.785	117.336	-19.5654	184.527	134.437	-36.3752	192.876	80.062	-4.16466	201.324	93.4989	-18.6437	214.025	109.585	-29.2254	170.892	66.6141	35.6527	171.949	40.6439	52.2279	143.161	59.4994	51.7103	
147	1.225	111.349	40.0182	30.282	105.014	38.5367	-1.00007	97.7424	49.186	-25.317	97.8195	59.5368	-46.2512	124.009	94.2816	-7.39824	115.54	87.7069	-35.3862	113.911	64.6757	-56.6698	154.375	106.255	-3.33761	150.505	124.575	-24.4093	149.074	142.263	-45.0228	173.724	95.3702	-2.23803	181.581	112.331	-19.4637	186.223	130.981	-38.0812	189.145	74.7807	-3.71594	201.905	86.5886	-19.2093	217.504	101.703	-27.6459	171.765	60.6406	35.1823	170.587	39.6805	51.0755	144.952	56.2636	50.2938	
148	1.23333	113.697	37.619	30.6803	104.032	37.5478	-3.2521	96.5728	48.71	-28.3559	96.2493	56.4034	-47.8544	121.701	93.4267	-8.93002	115.929	83.8778	-37.8289	111.975	63.0929	-57.5005	152.886	104.381	-3.08571	154.023	118.8	-21.8071	154.453	138.169	-45.9103	174.434	95.2877	-2.77392	183.807	109.81	-19.1338	185.609	128.428	-38.4031	193.691	74.6428	-4.77205	206.487	84.9426	-20.3545	218.995	101.812	-31.4823	173.506	59.0759	32.3928	171.188	36.5165	53.2653	146.306	55.997	51.4651	
149	1.24167	110.96	35.5981	31.7482	106.074	34.4003	0.928641	96.1057	46.0615	-27.7306	100.791	55.6527	-48.0517	125.457	91.9062	-7.09193	118.195	84.9364	-33.5024	116.91	66.3005	-55.4212	152.985	101.545	-0.23964	152.935	118.002	-21.6558	156.321	137.16	-44.0165	174.002	93.0647	-1.41154	182.224	107.852	-18.0379	189.146	129.421	-39.0162	193.502	73.6468	-4.48608	205.772	84.4241	-18.2225	220.096	99.9758	-29.5425	172.36	58.0016	35.8014	173.358	35.6698	54.2758	141.945	57.1272	51.2567	
150	1.25	112.52	36.0077	33.5992	105.964	37.4044	-1.14016	98.6034	45.2513	-24.5582	97.3045	56.5229	-47.6595	122.715	91.9106	-4.77998	114.154	86.4629	-31.9464	112.386	62.3729	-56.026	155.199	103.205	-1.39521	155.616	120.118	-22.8584	157.646	138.414	-43.4593	176.115	91.26	-0.00780729	184.327	111.751	-18.7018	187.742	127.304	-34.2825	191.371	72.4225	-1.78177	204.281	82.1327	-14.5882	221.748	98.1279	-26.7423	172.366	60.6252	36.0201	171.604	38.1402	54.6359	143.899	57.7769	51.2832	
151	1.25833	112.113	39.7588	33.366	104.125	36.9521	1.01642	100.675	49.5073	-24.112	100.136	57.661	-45.8101	122.449	93.1186	-2.4045	118.474	87.4896	-30.7304	115.563	64.2072	-54.8788	156.331	102.556	2.04424	155.512	120.731	-18.5166	154.9	139.049	-38.1261	180.601	95.7082	-1.0206	186.394	112.624	-17.0354	190.419	127.14	-32.9586	195.924	71.3637	0.0668983	206.272	85.9616	-14.8565	221.967	100.504	-27.8573	172.286	60.5442	37.3528	175.573	34.7525	57.0451	144.017	58.1064	52.7934	
152	1.26667	116.143	39.5261	35.0818	105.363	38.1668	3.4885	96.3972	50.8719	-25.4423	97.3186	60.1691	-44.164	125.976	95.0157	-1.68401	116.77	89.344	-30.1567	115.865	68.3393	-51.5907	156.96	108.79	0.904254	153.881	124.411	-17.5825	159.624	141.806	-37.8294	178.457	94.5666	2.51288	182.328	112.068	-12.4504	187.814	130.664	-30.3332	192.535	74.8616	0.36313	208.357	88.3892	-15.8406	219.404	102.014	-24.2407	177.709	60.6768	38.6121	170.858	36.0729	57.6978	143.096	57.4226	55.0579	
153	1.275	114.21	39.605	38.0997	104.101	41.3288	4.01966	96.4356	53.7733	-23.4526	95.6147	60.5487	-43.5198	121.107	97.6502	-0.848148	115.591	91.9122	-28.9114	116.063	71.8093	-50.1148	154.359	107.074	7.01886	156.586	127.354	-17.2873	155.984	146.96	-36.5966	177.613	100.067	3.751	184.541	115.84	-13.0596	191.549	133.323	-29.5591	193.707	77.3534	1.51755	206.206	90.5182	-14.0133	218.735	107.893	-23.6385	176.03	62.8632	38.3401	174.305	41.5971	57.0873	145.195	58.1255	55.8647	
154	1.28333	115.522	41.44	36.9717	104.78	43.6152	3.50338	98.2682	53.3487	-22.1709	96.4074	63.3991	-43.9356	123.875	99.0677	-3.38101	114.288	92.0173	-29.9057	116.188	71.1251	-49.8694	156.759	109.558	5.10315	157.279	125.84	-14.2399	157.185	147.556	-35.7812	179.061	97.2007	5.12669	188.121	113.425	-11.7358	190.334	134.506	-27.0823	194.733	75.6983	1.72876	205.618	88.2588	-11.4318	221.225	103.567	-18.8646	172.885	61.3561	38.812	175.424	38.699	56.5936	143.707	61.9659	56.7143	
155	1.29167	115.832	42.0993	35.8428	104.331	43.7884	1.84179	96.777	53.7157	-24.7415	100.074	62.6109	-44.8245	125.985	100.059	-4.46729	118.822	90.7107	-32.7804	115.893	73.2471	-49.77	154.919	112.176	2.43178	159.541	127.821	-19.0768	159.231	146.851	-38.8242	181.045	95.44	2.16815	188.715	115.192	-14.4603	193.161	135.237	-30.9605	194.869	75.2672	2.08318	208.529	89.5949	-13.3894	222.913	105.914	-20.2305	176.98	65.1196	36.273	174.368	39.6289	55.0578	144.962	60.78	53.9425	
156	1.3	112.783	43.4896	31.4185	105.827	40.2481	0.411398	99.6986	49.1573	-26.1624	98.7342	57.9426	-47.2213	125.101	98.546	-8.3952	119.018	88.8058	-38.1041	118.775	67.2215	-52.8428	158.417	108.411	-3.33465	156.288	122.425	-20.8682	163.359	141.497	-46.057	179.455	99.7135	-2.21074	186.892	115.461	-20.0885	193.276	132.311	-36.1955	196.243	73.9299	-1.22325	205.905	87.6801	-14.6353	226.155	102.798	-21.7095	174.533	65.1227	33.4784	170.72	40.5408	54.1281	145.377	63.6114	51.7959	
157	1.30833	110.626	39.7544	28.5268	104.262	41.4192	-7.6536	99.478	48.3781	-33.8959	104.457	55.6277	-54.8604	128.465	94.8082	-12.1241	118.755	86.0888	-42.2328	120.452	57.1717	-56.6901	157.196	106.754	-11.0245	161.29	118.582	-33.6338	165.806	133.615	-55.8879	182.986	91.9069	-7.47801	188.231	108.028	-23.6774	198.331	123.798	-42.1703	197.759	70.8823	-4.30541	207.312	82.8155	-18.0082	225.289	94.2802	-24.2531	173.625	60.4025	34.2547	169.35	41.4134	54.6095	140.375	62.7306	46.5183	
158	1.31667	111.767	41.3326	20.761	102.555	35.1314	-8.61235	101.886	42.1901	-37.1736	104.924	49.4698	-61.4235	129.453	92.8214	-21.278	121.203	82.7548	-47.1972	126.122	51.3801	-59.8567	160.573	99.9519	-14.9442	163.059	112.151	-38.2965	168.55	123.895	-63.8672	181.803	89.6545	-11.735	188.3	102.886	-29.8957	195.866	121.879	-51.2148	199.274	67.5315	-7.4788	209.567	80.0357	-23.2939	228.905	87.731	-28.561	174.393	63.0465	27.2649	167.655	41.8544	48.3833	139.235	62.4908	40.9072	
